<svg width="32" height="37" viewBox="0 0 32 37" fill="none" xmlns="http://www.w3.org/2000/svg">
<path d="M26.1 34.56C24.14 36.46 22 36.16 19.94 35.26C17.76 34.34 15.76 34.3 13.46 35.26C10.58 36.5 9.05999 36.14 7.33999 34.56C-2.42001 24.5 -0.980007 9.18 10.1 8.62C12.8 8.76 14.68 10.1 16.26 10.22C18.62 9.74 20.88 8.36 23.4 8.54C26.42 8.78 28.7 9.98 30.2 12.14C23.96 15.88 25.44 24.1 31.16 26.4C30.02 29.4 28.54 32.38 26.08 34.58L26.1 34.56ZM16.06 8.5C15.76 4.04 19.38 0.36 23.54 0C24.12 5.16 18.86 9 16.06 8.5Z" fill="black"/>
</svg>
