<svg width="31" height="31" viewBox="0 0 31 31" fill="none" xmlns="http://www.w3.org/2000/svg">
<g clip-path="url(#clip0_2_816)">
<path d="M10.7991 1.01958C7.70177 2.09409 5.03059 4.13355 3.17797 6.83838C1.32535 9.54322 0.388942 12.7709 0.506284 16.0472C0.623626 19.3236 1.78854 22.476 3.82991 25.0414C5.87128 27.6067 8.68151 29.4499 11.8478 30.3001C14.4148 30.9624 17.1043 30.9915 19.685 30.3848C22.0229 29.8597 24.1843 28.7364 25.9577 27.125C27.8033 25.3966 29.143 23.1979 29.8327 20.7651C30.582 18.1196 30.7154 15.3376 30.2226 12.6325H15.8076V18.6121H24.1558C23.9889 19.5658 23.6314 20.476 23.1046 21.2883C22.5777 22.1006 21.8924 22.7983 21.0897 23.3396C20.0704 24.0142 18.9212 24.4679 17.716 24.6716C16.5074 24.8964 15.2676 24.8964 14.059 24.6716C12.8339 24.4186 11.675 23.913 10.6563 23.187C9.01943 22.0283 7.7904 20.3823 7.14454 18.4837C6.48795 16.5496 6.48795 14.4528 7.14454 12.5186C7.60428 11.1629 8.36428 9.92853 9.36782 8.90763C10.5163 7.71788 11.9702 6.86743 13.5702 6.44961C15.1701 6.03179 16.8542 6.06273 18.4377 6.53903C19.6748 6.9186 20.8061 7.58208 21.7412 8.47653C22.6825 7.54008 23.6222 6.6012 24.5602 5.65989C25.0446 5.15372 25.5726 4.67177 26.0497 4.15349C24.6221 2.82513 22.9464 1.79144 21.1188 1.11161C17.7904 -0.0969271 14.1485 -0.129405 10.7991 1.01958Z" fill="white"/>
<path d="M10.7991 1.0196C14.1483 -0.130169 17.7901 -0.0985456 21.1187 1.10921C22.9467 1.79366 24.6216 2.83232 26.0473 4.16562C25.5629 4.6839 25.0519 5.16827 24.5578 5.67202C23.6181 6.61009 22.6792 7.54494 21.7412 8.47655C20.8061 7.5821 19.6748 6.91862 18.4377 6.53905C16.8547 6.06107 15.1707 6.02835 13.5703 6.44446C11.9699 6.86057 10.5151 7.70945 9.36538 8.89796C8.36184 9.91887 7.60183 11.1532 7.1421 12.509L2.12155 8.62187C3.9186 5.05822 7.03008 2.33231 10.7991 1.0196Z" fill="#E33629"/>
<path d="M0.789533 12.4727C1.05918 11.1352 1.5072 9.84007 2.12156 8.62189L7.14211 12.5187C6.48552 14.4528 6.48552 16.5496 7.14211 18.4838C5.4694 19.7754 3.79589 21.0736 2.12156 22.3781C0.584038 19.3177 0.11512 15.8306 0.789533 12.4727Z" fill="#F8BD00"/>
<path d="M15.8076 12.6301H30.2226C30.7154 15.3352 30.582 18.1172 29.8326 20.7627C29.143 23.1954 27.8033 25.3942 25.9576 27.1226C24.3374 25.8583 22.7099 24.6038 21.0897 23.3396C21.893 22.7978 22.5786 22.0993 23.1054 21.2862C23.6323 20.473 23.9895 19.5618 24.1558 18.6073H15.8076C15.8051 16.6165 15.8076 14.6233 15.8076 12.6301Z" fill="#587DBD"/>
<path d="M2.11914 22.3781C3.79346 21.0865 5.46698 19.7883 7.13969 18.4838C7.78683 20.383 9.01762 22.0291 10.6562 23.187C11.6782 23.9097 12.8396 24.4112 14.0663 24.6595C15.2749 24.8843 16.5146 24.8843 17.7233 24.6595C18.9285 24.4558 20.0777 24.0021 21.097 23.3275C22.7172 24.5917 24.3447 25.8463 25.9649 27.1105C24.1918 28.7228 22.0304 29.8469 19.6923 30.3728C17.1115 30.9794 14.4221 30.9504 11.8551 30.288C9.82482 29.7459 7.92843 28.7903 6.28477 27.481C4.5452 26.0996 3.1243 24.359 2.11914 22.3781Z" fill="#319F43"/>
</g>
<defs>
<clipPath id="clip0_2_816">
<rect width="31" height="31" fill="white"/>
</clipPath>
</defs>
</svg>
