<svg width="151" height="151" viewBox="0 0 151 151" fill="none" xmlns="http://www.w3.org/2000/svg">
<circle cx="75.5" cy="75.5" r="75.5" fill="#3D73FF"/>
<path d="M80 63.9568C77.8462 62.6331 75.7692 59.4341 75 58V95.7266C78 98.5 80 102.5 80 104.5V63.9568Z" fill="#fff" stroke="#fff"/>
<path d="M45.4066 104.233C55.0386 92.8493 67.9054 95.1114 73.1349 97.6653C75.932 99.4895 80.7966 104.889 77.8779 111.894C74.2294 120.651 57.3927 123.4 53.3795 122.954C46.8122 122.225 33.3668 118.461 45.4066 104.233Z" fill="#fff" stroke="#fff"/>
<path d="M111.353 55.0931C111.717 52.0527 110.55 45.5341 102.961 42.3235C93.4751 38.3102 87.2728 37.0332 83.9891 35.3914C80.5899 33.6918 76.2404 31.042 75.6622 27.7372C75.6454 27.4699 75.6256 27.2232 75.5977 27C75.5977 27.2492 75.6198 27.4949 75.6622 27.7372C75.8652 30.9642 75.633 37.1857 83.9891 41.229C95.2993 46.7016 99.3126 46.7016 102.961 47.7962C106.61 48.8907 110.258 52.5392 111.353 55.0931Z" fill="#fff" stroke="#fff"/>
<path d="M111.353 65.6736C111.717 62.6332 110.55 56.1146 102.961 52.904C93.4751 48.8907 87.2728 47.6137 83.9891 45.9719C80.5899 44.2723 76.2404 41.6225 75.6622 38.3177C75.6454 38.0504 75.6256 37.8037 75.5977 37.5805C75.5977 37.8297 75.6198 38.0754 75.6622 38.3177C75.8652 41.5447 75.633 47.7662 83.9891 51.8095C95.2993 57.2821 99.3126 57.2821 102.961 58.3767C106.61 59.4712 110.258 63.1197 111.353 65.6736Z" fill="#fff" stroke="#fff"/>
<path d="M111.353 76.2541C111.717 73.2137 110.55 66.6951 102.961 63.4845C93.4751 59.4712 87.2728 58.1942 83.9891 56.5524C80.5899 54.8528 76.2404 52.203 75.6622 48.8982C75.6454 48.6309 75.6256 48.3842 75.5977 48.161C75.5977 48.4102 75.6198 48.6559 75.6622 48.8982C75.8652 52.1252 75.633 58.3467 83.9891 62.39C95.2993 67.8626 99.3126 67.8626 102.961 68.9572C106.61 70.0517 110.258 73.7002 111.353 76.2541Z" fill="#fff" stroke="#fff"/>
</svg>